<svg width="600" height="800" viewBox="0 0 600 800" fill="none" xmlns="http://www.w3.org/2000/svg">
<rect width="600" height="800" fill="white"/>
<circle cx="530" cy="730" r="40" fill="#56CCF2"/>
<path d="M511.02 748L553 730L511.02 712L511 726L541 730L511 734L511.02 748Z" fill="#2F80ED"/>
<rect x="20.75" y="350.75" width="548.5" height="328.5" rx="9.25" fill="#56CCF2" fill-opacity="0.15" stroke="#2D9CDB" stroke-width="1.5"/>
<rect x="400" y="285" width="90" height="50" rx="10" fill="#C4C4C4"/>
<path d="M417.359 311.156L415.531 313.125V318H412.016V300.938H415.531V308.672L417.078 306.551L421.426 300.938H425.75L419.691 308.52L425.926 318H421.742L417.359 311.156ZM434.34 316.711C433.504 317.727 432.348 318.234 430.871 318.234C429.512 318.234 428.473 317.844 427.754 317.062C427.043 316.281 426.68 315.137 426.664 313.629V305.32H430.051V313.512C430.051 314.832 430.652 315.492 431.855 315.492C433.004 315.492 433.793 315.094 434.223 314.297V305.32H437.621V318H434.434L434.34 316.711ZM447.301 308.496C446.84 308.434 446.434 308.402 446.082 308.402C444.801 308.402 443.961 308.836 443.562 309.703V318H440.176V305.32H443.375L443.469 306.832C444.148 305.668 445.09 305.086 446.293 305.086C446.668 305.086 447.02 305.137 447.348 305.238L447.301 308.496ZM455.809 314.496C455.809 314.082 455.602 313.758 455.188 313.523C454.781 313.281 454.125 313.066 453.219 312.879C450.203 312.246 448.695 310.965 448.695 309.035C448.695 307.91 449.16 306.973 450.09 306.223C451.027 305.465 452.25 305.086 453.758 305.086C455.367 305.086 456.652 305.465 457.613 306.223C458.582 306.98 459.066 307.965 459.066 309.176H455.68C455.68 308.691 455.523 308.293 455.211 307.98C454.898 307.66 454.41 307.5 453.746 307.5C453.176 307.5 452.734 307.629 452.422 307.887C452.109 308.145 451.953 308.473 451.953 308.871C451.953 309.246 452.129 309.551 452.48 309.785C452.84 310.012 453.441 310.211 454.285 310.383C455.129 310.547 455.84 310.734 456.418 310.945C458.207 311.602 459.102 312.738 459.102 314.355C459.102 315.512 458.605 316.449 457.613 317.168C456.621 317.879 455.34 318.234 453.77 318.234C452.707 318.234 451.762 318.047 450.934 317.672C450.113 317.289 449.469 316.77 449 316.113C448.531 315.449 448.297 314.734 448.297 313.969H451.508C451.539 314.57 451.762 315.031 452.176 315.352C452.59 315.672 453.145 315.832 453.84 315.832C454.488 315.832 454.977 315.711 455.305 315.469C455.641 315.219 455.809 314.895 455.809 314.496ZM464.867 318H461.469V305.32H464.867V318ZM461.27 302.039C461.27 301.531 461.438 301.113 461.773 300.785C462.117 300.457 462.582 300.293 463.168 300.293C463.746 300.293 464.207 300.457 464.551 300.785C464.895 301.113 465.066 301.531 465.066 302.039C465.066 302.555 464.891 302.977 464.539 303.305C464.195 303.633 463.738 303.797 463.168 303.797C462.598 303.797 462.137 303.633 461.785 303.305C461.441 302.977 461.27 302.555 461.27 302.039ZM472.414 313.863L474.77 305.32H478.309L474.031 318H470.797L466.52 305.32H470.059L472.414 313.863Z" fill="black"/>
<rect x="290" y="285" width="90" height="50" rx="10" fill="#C4C4C4"/>
<path d="M325.242 311.027H318.492V318H314.977V300.938H326.086V303.785H318.492V308.191H325.242V311.027ZM333.48 318.234C331.621 318.234 330.105 317.664 328.934 316.523C327.77 315.383 327.188 313.863 327.188 311.965V311.637C327.188 310.363 327.434 309.227 327.926 308.227C328.418 307.219 329.113 306.445 330.012 305.906C330.918 305.359 331.949 305.086 333.105 305.086C334.84 305.086 336.203 305.633 337.195 306.727C338.195 307.82 338.695 309.371 338.695 311.379V312.762H330.621C330.73 313.59 331.059 314.254 331.605 314.754C332.16 315.254 332.859 315.504 333.703 315.504C335.008 315.504 336.027 315.031 336.762 314.086L338.426 315.949C337.918 316.668 337.23 317.23 336.363 317.637C335.496 318.035 334.535 318.234 333.48 318.234ZM333.094 307.828C332.422 307.828 331.875 308.055 331.453 308.508C331.039 308.961 330.773 309.609 330.656 310.453H335.367V310.184C335.352 309.434 335.148 308.855 334.758 308.449C334.367 308.035 333.812 307.828 333.094 307.828ZM344.684 302.203V305.32H346.852V307.805H344.684V314.133C344.684 314.602 344.773 314.938 344.953 315.141C345.133 315.344 345.477 315.445 345.984 315.445C346.359 315.445 346.691 315.418 346.98 315.363V317.93C346.316 318.133 345.633 318.234 344.93 318.234C342.555 318.234 341.344 317.035 341.297 314.637V307.805H339.445V305.32H341.297V302.203H344.684ZM352.793 302.203V305.32H354.961V307.805H352.793V314.133C352.793 314.602 352.883 314.938 353.062 315.141C353.242 315.344 353.586 315.445 354.094 315.445C354.469 315.445 354.801 315.418 355.09 315.363V317.93C354.426 318.133 353.742 318.234 353.039 318.234C350.664 318.234 349.453 317.035 349.406 314.637V307.805H347.555V305.32H349.406V302.203H352.793Z" fill="black"/>
<path d="M27.2949 322H22.8652V296.406H27.2949V322ZM36.3125 302.98L36.4355 305.178C37.8418 303.479 39.6875 302.629 41.9727 302.629C45.9336 302.629 47.9492 304.896 48.0195 309.432V322H43.748V309.678C43.748 308.471 43.4844 307.58 42.957 307.006C42.4414 306.42 41.5918 306.127 40.4082 306.127C38.6855 306.127 37.4023 306.906 36.5586 308.465V322H32.2871V302.98H36.3125ZM56.5977 305.055C57.9922 303.438 59.7559 302.629 61.8887 302.629C65.9434 302.629 68 304.943 68.0586 309.572V322H63.7871V309.73C63.7871 308.418 63.5 307.492 62.9258 306.953C62.3633 306.402 61.5312 306.127 60.4297 306.127C58.7188 306.127 57.4414 306.889 56.5977 308.412V322H52.3262V295H56.5977V305.055ZM83.7559 322C83.5684 321.637 83.4043 321.045 83.2637 320.225C81.9043 321.643 80.2402 322.352 78.2715 322.352C76.3613 322.352 74.8027 321.807 73.5957 320.717C72.3887 319.627 71.7852 318.279 71.7852 316.674C71.7852 314.646 72.5352 313.094 74.0352 312.016C75.5469 310.926 77.7031 310.381 80.5039 310.381H83.123V309.133C83.123 308.148 82.8477 307.363 82.2969 306.777C81.7461 306.18 80.9082 305.881 79.7832 305.881C78.8105 305.881 78.0137 306.127 77.3926 306.619C76.7715 307.1 76.4609 307.715 76.4609 308.465H72.1895C72.1895 307.422 72.5352 306.449 73.2266 305.547C73.918 304.633 74.8555 303.918 76.0391 303.402C77.2344 302.887 78.5645 302.629 80.0293 302.629C82.2559 302.629 84.0312 303.191 85.3555 304.316C86.6797 305.43 87.3594 307 87.3945 309.027V317.605C87.3945 319.316 87.6348 320.682 88.1152 321.701V322H83.7559ZM79.0625 318.924C79.9062 318.924 80.6973 318.719 81.4355 318.309C82.1855 317.898 82.748 317.348 83.123 316.656V313.07H80.8203C79.2383 313.07 78.0488 313.346 77.252 313.896C76.4551 314.447 76.0566 315.227 76.0566 316.234C76.0566 317.055 76.3262 317.711 76.8652 318.203C77.416 318.684 78.1484 318.924 79.0625 318.924ZM96.4121 322H92.1406V295H96.4121V322ZM106.432 298.357V302.98H109.789V306.145H106.432V316.762C106.432 317.488 106.572 318.016 106.854 318.344C107.146 318.66 107.662 318.818 108.4 318.818C108.893 318.818 109.391 318.76 109.895 318.643V321.947C108.922 322.217 107.984 322.352 107.082 322.352C103.801 322.352 102.16 320.541 102.16 316.92V306.145H99.0312V302.98H102.16V298.357H106.432ZM123.236 324.197H119.879L129.951 296.406H133.309L123.236 324.197ZM163.086 299.992H155.105V322H150.693V299.992H142.783V296.406H163.086V299.992ZM172.842 322.352C170.135 322.352 167.938 321.502 166.25 319.803C164.574 318.092 163.736 315.818 163.736 312.982V312.455C163.736 310.557 164.1 308.863 164.826 307.375C165.564 305.875 166.596 304.709 167.92 303.877C169.244 303.045 170.721 302.629 172.35 302.629C174.939 302.629 176.938 303.455 178.344 305.107C179.762 306.76 180.471 309.098 180.471 312.121V313.844H168.043C168.172 315.414 168.693 316.656 169.607 317.57C170.533 318.484 171.693 318.941 173.088 318.941C175.045 318.941 176.639 318.15 177.869 316.568L180.172 318.766C179.41 319.902 178.391 320.787 177.113 321.42C175.848 322.041 174.424 322.352 172.842 322.352ZM172.332 306.057C171.16 306.057 170.211 306.467 169.484 307.287C168.77 308.107 168.312 309.25 168.113 310.715H176.252V310.398C176.158 308.969 175.777 307.891 175.109 307.164C174.441 306.426 173.516 306.057 172.332 306.057ZM190.631 309.238L194.252 302.98H198.998L193.18 312.35L199.191 322H194.48L190.684 315.496L186.904 322H182.158L188.17 312.35L182.369 302.98H187.08L190.631 309.238ZM207.26 298.357V302.98H210.617V306.145H207.26V316.762C207.26 317.488 207.4 318.016 207.682 318.344C207.975 318.66 208.49 318.818 209.229 318.818C209.721 318.818 210.219 318.76 210.723 318.643V321.947C209.75 322.217 208.812 322.352 207.91 322.352C204.629 322.352 202.988 320.541 202.988 316.92V306.145H199.859V302.98H202.988V298.357H207.26ZM216.471 317.5C217.268 317.5 217.883 317.729 218.316 318.186C218.75 318.631 218.967 319.193 218.967 319.873C218.967 320.541 218.75 321.098 218.316 321.543C217.883 321.977 217.268 322.193 216.471 322.193C215.709 322.193 215.105 321.977 214.66 321.543C214.215 321.109 213.992 320.553 213.992 319.873C213.992 319.193 214.209 318.631 214.643 318.186C215.076 317.729 215.686 317.5 216.471 317.5ZM216.471 302.576C217.268 302.576 217.883 302.805 218.316 303.262C218.75 303.707 218.967 304.27 218.967 304.949C218.967 305.617 218.75 306.174 218.316 306.619C217.883 307.053 217.268 307.27 216.471 307.27C215.709 307.27 215.105 307.053 214.66 306.619C214.215 306.186 213.992 305.629 213.992 304.949C213.992 304.27 214.209 303.707 214.643 303.262C215.076 302.805 215.686 302.576 216.471 302.576Z" fill="black"/>
<rect x="118.75" y="200.75" width="450.5" height="58.5" rx="9.25" fill="#56CCF2" fill-opacity="0.15" stroke="#2D9CDB" stroke-width="1.5"/>
<path d="M41.0938 219.992H33.1133V242H28.7012V219.992H20.791V216.406H41.0938V219.992ZM52.4668 242C52.2793 241.637 52.1152 241.045 51.9746 240.225C50.6152 241.643 48.9512 242.352 46.9824 242.352C45.0723 242.352 43.5137 241.807 42.3066 240.717C41.0996 239.627 40.4961 238.279 40.4961 236.674C40.4961 234.646 41.2461 233.094 42.7461 232.016C44.2578 230.926 46.4141 230.381 49.2148 230.381H51.834V229.133C51.834 228.148 51.5586 227.363 51.0078 226.777C50.457 226.18 49.6191 225.881 48.4941 225.881C47.5215 225.881 46.7246 226.127 46.1035 226.619C45.4824 227.1 45.1719 227.715 45.1719 228.465H40.9004C40.9004 227.422 41.2461 226.449 41.9375 225.547C42.6289 224.633 43.5664 223.918 44.75 223.402C45.9453 222.887 47.2754 222.629 48.7402 222.629C50.9668 222.629 52.7422 223.191 54.0664 224.316C55.3906 225.43 56.0703 227 56.1055 229.027V237.605C56.1055 239.316 56.3457 240.682 56.8262 241.701V242H52.4668ZM47.7734 238.924C48.6172 238.924 49.4082 238.719 50.1465 238.309C50.8965 237.898 51.459 237.348 51.834 236.656V233.07H49.5312C47.9492 233.07 46.7598 233.346 45.9629 233.896C45.166 234.447 44.7676 235.227 44.7676 236.234C44.7676 237.055 45.0371 237.711 45.5762 238.203C46.127 238.684 46.8594 238.924 47.7734 238.924ZM59.832 232.35C59.832 229.396 60.5234 227.041 61.9062 225.283C63.3008 223.514 65.1465 222.629 67.4434 222.629C69.6113 222.629 71.3164 223.385 72.5586 224.896L72.752 222.98H76.6016V241.42C76.6016 243.916 75.8223 245.885 74.2637 247.326C72.7168 248.768 70.625 249.488 67.9883 249.488C66.5938 249.488 65.2285 249.195 63.8926 248.609C62.5684 248.035 61.5605 247.279 60.8691 246.342L62.8906 243.775C64.2031 245.334 65.8203 246.113 67.7422 246.113C69.1602 246.113 70.2793 245.727 71.0996 244.953C71.9199 244.191 72.3301 243.066 72.3301 241.578V240.295C71.0996 241.666 69.459 242.352 67.4082 242.352C65.1816 242.352 63.3594 241.467 61.9414 239.697C60.5352 237.928 59.832 235.479 59.832 232.35ZM64.0859 232.719C64.0859 234.629 64.4727 236.135 65.2461 237.236C66.0312 238.326 67.1152 238.871 68.498 238.871C70.2207 238.871 71.498 238.133 72.3301 236.656V228.289C71.5215 226.848 70.2559 226.127 68.5332 226.127C67.127 226.127 66.0312 226.684 65.2461 227.797C64.4727 228.91 64.0859 230.551 64.0859 232.719ZM91.666 236.832C91.666 236.07 91.3496 235.49 90.7168 235.092C90.0957 234.693 89.0586 234.342 87.6055 234.037C86.1523 233.732 84.9395 233.346 83.9668 232.877C81.834 231.846 80.7676 230.352 80.7676 228.395C80.7676 226.754 81.459 225.383 82.8418 224.281C84.2246 223.18 85.9824 222.629 88.1152 222.629C90.3887 222.629 92.2227 223.191 93.6172 224.316C95.0234 225.441 95.7266 226.9 95.7266 228.693H91.4551C91.4551 227.873 91.1504 227.193 90.541 226.654C89.9316 226.104 89.123 225.828 88.1152 225.828C87.1777 225.828 86.4102 226.045 85.8125 226.479C85.2266 226.912 84.9336 227.492 84.9336 228.219C84.9336 228.875 85.209 229.385 85.7598 229.748C86.3105 230.111 87.4238 230.48 89.0996 230.855C90.7754 231.219 92.0879 231.658 93.0371 232.174C93.998 232.678 94.707 233.287 95.1641 234.002C95.6328 234.717 95.8672 235.584 95.8672 236.604C95.8672 238.314 95.1582 239.703 93.7402 240.77C92.3223 241.824 90.4648 242.352 88.168 242.352C86.6094 242.352 85.2207 242.07 84.002 241.508C82.7832 240.945 81.834 240.172 81.1543 239.188C80.4746 238.203 80.1348 237.143 80.1348 236.006H84.2832C84.3418 237.014 84.7227 237.793 85.4258 238.344C86.1289 238.883 87.0605 239.152 88.2207 239.152C89.3457 239.152 90.2012 238.941 90.7871 238.52C91.373 238.086 91.666 237.523 91.666 236.832ZM102.178 237.5C102.975 237.5 103.59 237.729 104.023 238.186C104.457 238.631 104.674 239.193 104.674 239.873C104.674 240.541 104.457 241.098 104.023 241.543C103.59 241.977 102.975 242.193 102.178 242.193C101.416 242.193 100.812 241.977 100.367 241.543C99.9219 241.109 99.6992 240.553 99.6992 239.873C99.6992 239.193 99.916 238.631 100.35 238.186C100.783 237.729 101.393 237.5 102.178 237.5ZM102.178 222.576C102.975 222.576 103.59 222.805 104.023 223.262C104.457 223.707 104.674 224.27 104.674 224.949C104.674 225.617 104.457 226.174 104.023 226.619C103.59 227.053 102.975 227.27 102.178 227.27C101.416 227.27 100.812 227.053 100.367 226.619C99.9219 226.186 99.6992 225.629 99.6992 224.949C99.6992 224.27 99.916 223.707 100.35 223.262C100.783 222.805 101.393 222.576 102.178 222.576Z" fill="black"/>
<rect x="118.75" y="120.75" width="450.5" height="58.5" rx="9.25" fill="#56CCF2" fill-opacity="0.15" stroke="#2D9CDB" stroke-width="1.5"/>
<path d="M41.0938 139.992H33.1133V162H28.7012V139.992H20.791V136.406H41.0938V139.992ZM48.5996 162H44.3281V142.98H48.5996V162ZM44.0645 138.041C44.0645 137.385 44.2695 136.84 44.6797 136.406C45.1016 135.973 45.6992 135.756 46.4727 135.756C47.2461 135.756 47.8438 135.973 48.2656 136.406C48.6875 136.84 48.8984 137.385 48.8984 138.041C48.8984 138.686 48.6875 139.225 48.2656 139.658C47.8438 140.08 47.2461 140.291 46.4727 140.291C45.6992 140.291 45.1016 140.08 44.6797 139.658C44.2695 139.225 44.0645 138.686 44.0645 138.041ZM58.6191 138.357V142.98H61.9766V146.145H58.6191V156.762C58.6191 157.488 58.7598 158.016 59.041 158.344C59.334 158.66 59.8496 158.818 60.5879 158.818C61.0801 158.818 61.5781 158.76 62.082 158.643V161.947C61.1094 162.217 60.1719 162.352 59.2695 162.352C55.9883 162.352 54.3477 160.541 54.3477 156.92V146.145H51.2188V142.98H54.3477V138.357H58.6191ZM73.6309 162.352C70.9238 162.352 68.7266 161.502 67.0391 159.803C65.3633 158.092 64.5254 155.818 64.5254 152.982V152.455C64.5254 150.557 64.8887 148.863 65.6152 147.375C66.3535 145.875 67.3848 144.709 68.709 143.877C70.0332 143.045 71.5098 142.629 73.1387 142.629C75.7285 142.629 77.7266 143.455 79.1328 145.107C80.5508 146.76 81.2598 149.098 81.2598 152.121V153.844H68.832C68.9609 155.414 69.4824 156.656 70.3965 157.57C71.3223 158.484 72.4824 158.941 73.877 158.941C75.834 158.941 77.4277 158.15 78.6582 156.568L80.9609 158.766C80.1992 159.902 79.1797 160.787 77.9023 161.42C76.6367 162.041 75.2129 162.352 73.6309 162.352ZM73.1211 146.057C71.9492 146.057 71 146.467 70.2734 147.287C69.5586 148.107 69.1016 149.25 68.9023 150.715H77.041V150.398C76.9473 148.969 76.5664 147.891 75.8984 147.164C75.2305 146.426 74.3047 146.057 73.1211 146.057ZM89.1348 162H84.8633V135H89.1348V162ZM96.377 157.5C97.1738 157.5 97.7891 157.729 98.2227 158.186C98.6562 158.631 98.873 159.193 98.873 159.873C98.873 160.541 98.6562 161.098 98.2227 161.543C97.7891 161.977 97.1738 162.193 96.377 162.193C95.6152 162.193 95.0117 161.977 94.5664 161.543C94.1211 161.109 93.8984 160.553 93.8984 159.873C93.8984 159.193 94.1152 158.631 94.5488 158.186C94.9824 157.729 95.5918 157.5 96.377 157.5ZM96.377 142.576C97.1738 142.576 97.7891 142.805 98.2227 143.262C98.6562 143.707 98.873 144.27 98.873 144.949C98.873 145.617 98.6562 146.174 98.2227 146.619C97.7891 147.053 97.1738 147.27 96.377 147.27C95.6152 147.27 95.0117 147.053 94.5664 146.619C94.1211 146.186 93.8984 145.629 93.8984 144.949C93.8984 144.27 94.1152 143.707 94.5488 143.262C94.9824 142.805 95.5918 142.576 96.377 142.576Z" fill="black"/>
<line y1="99.5" x2="600" y2="99.5" stroke="black"/>
<path d="M233.555 62H230.162L217.277 42.2773V62H213.885V36.4062H217.277L230.197 56.2168V36.4062H233.555V62ZM246.932 62.3516C244.354 62.3516 242.256 61.5078 240.639 59.8203C239.021 58.1211 238.213 55.8535 238.213 53.0176V52.4199C238.213 50.5332 238.57 48.8516 239.285 47.375C240.012 45.8867 241.02 44.7266 242.309 43.8945C243.609 43.0508 245.016 42.6289 246.527 42.6289C249 42.6289 250.922 43.4434 252.293 45.0723C253.664 46.7012 254.35 49.0332 254.35 52.0684V53.4219H241.465C241.512 55.2969 242.057 56.8145 243.1 57.9746C244.154 59.123 245.49 59.6973 247.107 59.6973C248.256 59.6973 249.229 59.4629 250.025 58.9941C250.822 58.5254 251.52 57.9043 252.117 57.1309L254.104 58.6777C252.51 61.127 250.119 62.3516 246.932 62.3516ZM246.527 45.3008C245.215 45.3008 244.113 45.7812 243.223 46.7422C242.332 47.6914 241.781 49.0273 241.57 50.75H251.098V50.5039C251.004 48.8516 250.559 47.5742 249.762 46.6719C248.965 45.7578 247.887 45.3008 246.527 45.3008ZM269.871 60.1191C268.605 61.6074 266.748 62.3516 264.299 62.3516C262.271 62.3516 260.725 61.7656 259.658 60.5938C258.604 59.4102 258.07 57.6641 258.059 55.3555V42.9805H261.311V55.2676C261.311 58.1504 262.482 59.5918 264.826 59.5918C267.311 59.5918 268.963 58.666 269.783 56.8145V42.9805H273.035V62H269.941L269.871 60.1191ZM285.885 62.3516C283.307 62.3516 281.209 61.5078 279.592 59.8203C277.975 58.1211 277.166 55.8535 277.166 53.0176V52.4199C277.166 50.5332 277.523 48.8516 278.238 47.375C278.965 45.8867 279.973 44.7266 281.262 43.8945C282.562 43.0508 283.969 42.6289 285.48 42.6289C287.953 42.6289 289.875 43.4434 291.246 45.0723C292.617 46.7012 293.303 49.0332 293.303 52.0684V53.4219H280.418C280.465 55.2969 281.01 56.8145 282.053 57.9746C283.107 59.123 284.443 59.6973 286.061 59.6973C287.209 59.6973 288.182 59.4629 288.979 58.9941C289.775 58.5254 290.473 57.9043 291.07 57.1309L293.057 58.6777C291.463 61.127 289.072 62.3516 285.885 62.3516ZM285.48 45.3008C284.168 45.3008 283.066 45.7812 282.176 46.7422C281.285 47.6914 280.734 49.0273 280.523 50.75H290.051V50.5039C289.957 48.8516 289.512 47.5742 288.715 46.6719C287.918 45.7578 286.84 45.3008 285.48 45.3008ZM306.275 45.8984C305.783 45.8164 305.25 45.7754 304.676 45.7754C302.543 45.7754 301.096 46.6836 300.334 48.5V62H297.082V42.9805H300.246L300.299 45.1777C301.365 43.4785 302.877 42.6289 304.834 42.6289C305.467 42.6289 305.947 42.7109 306.275 42.875V45.8984ZM322.096 51.9805V62H318.721V36.4062H328.16C330.961 36.4062 333.152 37.1211 334.734 38.5508C336.328 39.9805 337.125 41.873 337.125 44.2285C337.125 46.7129 336.346 48.6289 334.787 49.9766C333.24 51.3125 331.02 51.9805 328.125 51.9805H322.096ZM322.096 49.2207H328.16C329.965 49.2207 331.348 48.7988 332.309 47.9551C333.27 47.0996 333.75 45.8691 333.75 44.2637C333.75 42.7402 333.27 41.5215 332.309 40.6074C331.348 39.6934 330.029 39.2188 328.354 39.1836H322.096V49.2207ZM339.814 52.3145C339.814 50.4512 340.178 48.7754 340.904 47.2871C341.643 45.7988 342.662 44.6504 343.963 43.8418C345.275 43.0332 346.77 42.6289 348.445 42.6289C351.035 42.6289 353.127 43.5254 354.721 45.3184C356.326 47.1113 357.129 49.4961 357.129 52.4727V52.7012C357.129 54.5527 356.771 56.2168 356.057 57.6934C355.354 59.1582 354.34 60.3008 353.016 61.1211C351.703 61.9414 350.191 62.3516 348.48 62.3516C345.902 62.3516 343.811 61.4551 342.205 59.6621C340.611 57.8691 339.814 55.4961 339.814 52.543V52.3145ZM343.084 52.7012C343.084 54.8105 343.57 56.5039 344.543 57.7812C345.527 59.0586 346.84 59.6973 348.48 59.6973C350.133 59.6973 351.445 59.0527 352.418 57.7637C353.391 56.4629 353.877 54.6465 353.877 52.3145C353.877 50.2285 353.379 48.541 352.383 47.252C351.398 45.9512 350.086 45.3008 348.445 45.3008C346.84 45.3008 345.545 45.9395 344.561 47.2168C343.576 48.4941 343.084 50.3223 343.084 52.7012ZM372.281 56.9551C372.281 56.0762 371.947 55.3965 371.279 54.916C370.623 54.4238 369.469 54.002 367.816 53.6504C366.176 53.2988 364.869 52.877 363.896 52.3848C362.936 51.8926 362.221 51.3066 361.752 50.627C361.295 49.9473 361.066 49.1387 361.066 48.2012C361.066 46.6426 361.723 45.3242 363.035 44.2461C364.359 43.168 366.047 42.6289 368.098 42.6289C370.254 42.6289 372 43.1855 373.336 44.2988C374.684 45.4121 375.357 46.8359 375.357 48.5703H372.088C372.088 47.6797 371.707 46.9121 370.945 46.2676C370.195 45.623 369.246 45.3008 368.098 45.3008C366.914 45.3008 365.988 45.5586 365.32 46.0742C364.652 46.5898 364.318 47.2637 364.318 48.0957C364.318 48.8809 364.629 49.4727 365.25 49.8711C365.871 50.2695 366.99 50.6504 368.607 51.0137C370.236 51.377 371.555 51.8105 372.562 52.3145C373.57 52.8184 374.314 53.4277 374.795 54.1426C375.287 54.8457 375.533 55.707 375.533 56.7266C375.533 58.4258 374.854 59.791 373.494 60.8223C372.135 61.8418 370.371 62.3516 368.203 62.3516C366.68 62.3516 365.332 62.082 364.16 61.543C362.988 61.0039 362.068 60.2539 361.4 59.293C360.744 58.3203 360.416 57.2715 360.416 56.1465H363.668C363.727 57.2363 364.16 58.1035 364.969 58.748C365.789 59.3809 366.867 59.6973 368.203 59.6973C369.434 59.6973 370.418 59.4512 371.156 58.959C371.906 58.4551 372.281 57.7871 372.281 56.9551ZM384.182 38.375V42.9805H387.732V45.4941H384.182V57.2891C384.182 58.0508 384.34 58.625 384.656 59.0117C384.973 59.3867 385.512 59.5742 386.273 59.5742C386.648 59.5742 387.164 59.5039 387.82 59.3633V62C386.965 62.2344 386.133 62.3516 385.324 62.3516C383.871 62.3516 382.775 61.9121 382.037 61.0332C381.299 60.1543 380.93 58.9062 380.93 57.2891V45.4941H377.467V42.9805H380.93V38.375H384.182Z" fill="black"/>
<circle cx="60" cy="50" r="40" fill="#56CCF2"/>
<path d="M82 46.6875H47.7719L63.4938 30.9656L59.5 27L37 49.5L59.5 72L63.4656 68.0344L47.7719 52.3125H82V46.6875Z" fill="#2F80ED"/>
</svg>
