<svg width="600" height="800" viewBox="0 0 600 800" fill="none" xmlns="http://www.w3.org/2000/svg">
<rect width="600" height="800" fill="white"/>
<circle r="40" transform="matrix(-1 0 0 1 300 745)" fill="#56CCF2"/>
<path d="M278 741.688H312.228L296.506 725.966L300.5 722L323 744.5L300.5 767L296.534 763.034L312.228 747.312H278V741.688Z" fill="#2F80ED"/>
<path d="M502.333 598H455.667C451.967 598 449 601 449 604.667V651.333C449 655 451.967 658 455.667 658H502.333C506.033 658 509 655 509 651.333V604.667C509 601 506.033 598 502.333 598ZM472.333 644.667L455.667 628L460.367 623.3L472.333 635.233L497.633 609.933L502.333 614.667L472.333 644.667Z" fill="black"/>
<line x1="50" y1="679" x2="525" y2="679" stroke="black"/>
<path d="M97.6297 613.578H86.6609V644H82.1844V613.578H71.2391V609.875H97.6297V613.578ZM110.192 644.469C106.755 644.469 103.958 643.344 101.802 641.094C99.6453 638.828 98.5672 635.805 98.5672 632.023V631.227C98.5672 628.711 99.0438 626.469 99.9969 624.5C100.966 622.516 102.309 620.969 104.028 619.859C105.763 618.734 107.638 618.172 109.653 618.172C112.95 618.172 115.513 619.258 117.341 621.43C119.169 623.602 120.083 626.711 120.083 630.758V632.562H102.903C102.966 635.062 103.692 637.086 105.083 638.633C106.489 640.164 108.27 640.93 110.427 640.93C111.958 640.93 113.255 640.617 114.317 639.992C115.38 639.367 116.309 638.539 117.106 637.508L119.755 639.57C117.63 642.836 114.442 644.469 110.192 644.469ZM109.653 621.734C107.903 621.734 106.434 622.375 105.247 623.656C104.059 624.922 103.325 626.703 103.044 629H115.747V628.672C115.622 626.469 115.028 624.766 113.966 623.562C112.903 622.344 111.466 621.734 109.653 621.734ZM133.63 627.898L139.255 618.641H144.317L136.02 631.18L144.575 644H139.559L133.7 634.508L127.841 644H122.802L131.356 631.18L123.059 618.641H128.075L133.63 627.898ZM154.817 612.5V618.641H159.552V621.992H154.817V637.719C154.817 638.734 155.028 639.5 155.45 640.016C155.872 640.516 156.591 640.766 157.606 640.766C158.106 640.766 158.794 640.672 159.669 640.484V644C158.528 644.312 157.419 644.469 156.341 644.469C154.403 644.469 152.942 643.883 151.958 642.711C150.973 641.539 150.481 639.875 150.481 637.719V621.992H145.864V618.641H150.481V612.5H154.817ZM178.091 626.891L179.825 609.875H197.309V613.883H183.505L182.473 623.188C184.145 622.203 186.044 621.711 188.169 621.711C191.278 621.711 193.747 622.742 195.575 624.805C197.403 626.852 198.317 629.625 198.317 633.125C198.317 636.641 197.364 639.414 195.458 641.445C193.567 643.461 190.919 644.469 187.513 644.469C184.497 644.469 182.036 643.633 180.13 641.961C178.223 640.289 177.138 637.977 176.872 635.023H180.973C181.239 636.977 181.934 638.453 183.059 639.453C184.184 640.438 185.669 640.93 187.513 640.93C189.528 640.93 191.106 640.242 192.247 638.867C193.403 637.492 193.981 635.594 193.981 633.172C193.981 630.891 193.356 629.062 192.106 627.688C190.872 626.297 189.223 625.602 187.161 625.602C185.27 625.602 183.786 626.016 182.708 626.844L181.559 627.781L178.091 626.891Z" fill="black"/>
<line x1="50.0906" y1="575.5" x2="525.091" y2="575.5" stroke="black"/>
<path d="M502.333 500.667V547.333H455.667V500.667H502.333ZM502.333 494H455.667C452 494 449 497 449 500.667V547.333C449 551 452 554 455.667 554H502.333C506 554 509 551 509 547.333V500.667C509 497 506 494 502.333 494Z" fill="black"/>
<line x1="50" y1="575" x2="525" y2="575" stroke="black"/>
<path d="M97.6297 509.578H86.6609V540H82.1844V509.578H71.2391V505.875H97.6297V509.578ZM110.192 540.469C106.755 540.469 103.958 539.344 101.802 537.094C99.6453 534.828 98.5672 531.805 98.5672 528.023V527.227C98.5672 524.711 99.0438 522.469 99.9969 520.5C100.966 518.516 102.309 516.969 104.028 515.859C105.763 514.734 107.638 514.172 109.653 514.172C112.95 514.172 115.513 515.258 117.341 517.43C119.169 519.602 120.083 522.711 120.083 526.758V528.562H102.903C102.966 531.062 103.692 533.086 105.083 534.633C106.489 536.164 108.27 536.93 110.427 536.93C111.958 536.93 113.255 536.617 114.317 535.992C115.38 535.367 116.309 534.539 117.106 533.508L119.755 535.57C117.63 538.836 114.442 540.469 110.192 540.469ZM109.653 517.734C107.903 517.734 106.434 518.375 105.247 519.656C104.059 520.922 103.325 522.703 103.044 525H115.747V524.672C115.622 522.469 115.028 520.766 113.966 519.562C112.903 518.344 111.466 517.734 109.653 517.734ZM133.63 523.898L139.255 514.641H144.317L136.02 527.18L144.575 540H139.559L133.7 530.508L127.841 540H122.802L131.356 527.18L123.059 514.641H128.075L133.63 523.898ZM154.817 508.5V514.641H159.552V517.992H154.817V533.719C154.817 534.734 155.028 535.5 155.45 536.016C155.872 536.516 156.591 536.766 157.606 536.766C158.106 536.766 158.794 536.672 159.669 536.484V540C158.528 540.312 157.419 540.469 156.341 540.469C154.403 540.469 152.942 539.883 151.958 538.711C150.973 537.539 150.481 535.875 150.481 533.719V517.992H145.864V514.641H150.481V508.5H154.817ZM194.403 528.539H199.138V532.078H194.403V540H190.044V532.078H174.505V529.523L189.786 505.875H194.403V528.539ZM179.427 528.539H190.044V511.805L189.528 512.742L179.427 528.539Z" fill="black"/>
<line x1="50.0906" y1="471.5" x2="525.091" y2="471.5" stroke="black"/>
<path d="M502.333 390H455.667C451.967 390 449 393 449 396.667V443.333C449 447 451.967 450 455.667 450H502.333C506.033 450 509 447 509 443.333V396.667C509 393 506.033 390 502.333 390ZM472.333 436.667L455.667 420L460.367 415.3L472.333 427.233L497.633 401.933L502.333 406.667L472.333 436.667Z" fill="black"/>
<line x1="50" y1="471" x2="525" y2="471" stroke="black"/>
<path d="M97.6297 405.578H86.6609V436H82.1844V405.578H71.2391V401.875H97.6297V405.578ZM110.192 436.469C106.755 436.469 103.958 435.344 101.802 433.094C99.6453 430.828 98.5672 427.805 98.5672 424.023V423.227C98.5672 420.711 99.0438 418.469 99.9969 416.5C100.966 414.516 102.309 412.969 104.028 411.859C105.763 410.734 107.638 410.172 109.653 410.172C112.95 410.172 115.513 411.258 117.341 413.43C119.169 415.602 120.083 418.711 120.083 422.758V424.562H102.903C102.966 427.062 103.692 429.086 105.083 430.633C106.489 432.164 108.27 432.93 110.427 432.93C111.958 432.93 113.255 432.617 114.317 431.992C115.38 431.367 116.309 430.539 117.106 429.508L119.755 431.57C117.63 434.836 114.442 436.469 110.192 436.469ZM109.653 413.734C107.903 413.734 106.434 414.375 105.247 415.656C104.059 416.922 103.325 418.703 103.044 421H115.747V420.672C115.622 418.469 115.028 416.766 113.966 415.562C112.903 414.344 111.466 413.734 109.653 413.734ZM133.63 419.898L139.255 410.641H144.317L136.02 423.18L144.575 436H139.559L133.7 426.508L127.841 436H122.802L131.356 423.18L123.059 410.641H128.075L133.63 419.898ZM154.817 404.5V410.641H159.552V413.992H154.817V429.719C154.817 430.734 155.028 431.5 155.45 432.016C155.872 432.516 156.591 432.766 157.606 432.766C158.106 432.766 158.794 432.672 159.669 432.484V436C158.528 436.312 157.419 436.469 156.341 436.469C154.403 436.469 152.942 435.883 151.958 434.711C150.973 433.539 150.481 431.875 150.481 429.719V413.992H145.864V410.641H150.481V404.5H154.817ZM182.403 416.828H185.661C187.708 416.797 189.317 416.258 190.489 415.211C191.661 414.164 192.247 412.75 192.247 410.969C192.247 406.969 190.255 404.969 186.27 404.969C184.395 404.969 182.895 405.508 181.77 406.586C180.661 407.648 180.106 409.062 180.106 410.828H175.77C175.77 408.125 176.755 405.883 178.723 404.102C180.708 402.305 183.223 401.406 186.27 401.406C189.489 401.406 192.013 402.258 193.841 403.961C195.669 405.664 196.583 408.031 196.583 411.062C196.583 412.547 196.098 413.984 195.13 415.375C194.177 416.766 192.872 417.805 191.216 418.492C193.091 419.086 194.536 420.07 195.552 421.445C196.583 422.82 197.098 424.5 197.098 426.484C197.098 429.547 196.098 431.977 194.098 433.773C192.098 435.57 189.497 436.469 186.294 436.469C183.091 436.469 180.481 435.602 178.466 433.867C176.466 432.133 175.466 429.844 175.466 427H179.825C179.825 428.797 180.411 430.234 181.583 431.312C182.755 432.391 184.325 432.93 186.294 432.93C188.388 432.93 189.989 432.383 191.098 431.289C192.208 430.195 192.763 428.625 192.763 426.578C192.763 424.594 192.153 423.07 190.934 422.008C189.716 420.945 187.958 420.398 185.661 420.367H182.403V416.828Z" fill="black"/>
<line x1="50.0906" y1="367.5" x2="525.091" y2="367.5" stroke="black"/>
<path d="M502.333 292.667V339.333H455.667V292.667H502.333ZM502.333 286H455.667C452 286 449 289 449 292.667V339.333C449 343 452 346 455.667 346H502.333C506 346 509 343 509 339.333V292.667C509 289 506 286 502.333 286Z" fill="black"/>
<line x1="50" y1="367" x2="525" y2="367" stroke="black"/>
<path d="M97.6297 301.578H86.6609V332H82.1844V301.578H71.2391V297.875H97.6297V301.578ZM110.192 332.469C106.755 332.469 103.958 331.344 101.802 329.094C99.6453 326.828 98.5672 323.805 98.5672 320.023V319.227C98.5672 316.711 99.0438 314.469 99.9969 312.5C100.966 310.516 102.309 308.969 104.028 307.859C105.763 306.734 107.638 306.172 109.653 306.172C112.95 306.172 115.513 307.258 117.341 309.43C119.169 311.602 120.083 314.711 120.083 318.758V320.562H102.903C102.966 323.062 103.692 325.086 105.083 326.633C106.489 328.164 108.27 328.93 110.427 328.93C111.958 328.93 113.255 328.617 114.317 327.992C115.38 327.367 116.309 326.539 117.106 325.508L119.755 327.57C117.63 330.836 114.442 332.469 110.192 332.469ZM109.653 309.734C107.903 309.734 106.434 310.375 105.247 311.656C104.059 312.922 103.325 314.703 103.044 317H115.747V316.672C115.622 314.469 115.028 312.766 113.966 311.562C112.903 310.344 111.466 309.734 109.653 309.734ZM133.63 315.898L139.255 306.641H144.317L136.02 319.18L144.575 332H139.559L133.7 322.508L127.841 332H122.802L131.356 319.18L123.059 306.641H128.075L133.63 315.898ZM154.817 300.5V306.641H159.552V309.992H154.817V325.719C154.817 326.734 155.028 327.5 155.45 328.016C155.872 328.516 156.591 328.766 157.606 328.766C158.106 328.766 158.794 328.672 159.669 328.484V332C158.528 332.312 157.419 332.469 156.341 332.469C154.403 332.469 152.942 331.883 151.958 330.711C150.973 329.539 150.481 327.875 150.481 325.719V309.992H145.864V306.641H150.481V300.5H154.817ZM198.458 332H176.098V328.883L187.911 315.758C189.661 313.773 190.864 312.164 191.52 310.93C192.192 309.68 192.528 308.391 192.528 307.062C192.528 305.281 191.989 303.82 190.911 302.68C189.833 301.539 188.395 300.969 186.598 300.969C184.442 300.969 182.763 301.586 181.559 302.82C180.372 304.039 179.778 305.742 179.778 307.93H175.442C175.442 304.789 176.45 302.25 178.466 300.312C180.497 298.375 183.208 297.406 186.598 297.406C189.77 297.406 192.278 298.242 194.122 299.914C195.966 301.57 196.888 303.781 196.888 306.547C196.888 309.906 194.747 313.906 190.466 318.547L181.325 328.461H198.458V332Z" fill="black"/>
<line x1="50.0906" y1="263.5" x2="525.091" y2="263.5" stroke="black"/>
<path d="M502.333 188.667V235.333H455.667V188.667H502.333ZM502.333 182H455.667C452 182 449 185 449 188.667V235.333C449 239 452 242 455.667 242H502.333C506 242 509 239 509 235.333V188.667C509 185 506 182 502.333 182Z" fill="black"/>
<line x1="49.9094" y1="263" x2="524.909" y2="263" stroke="black"/>
<path d="M97.5391 197.578H86.5703V228H82.0938V197.578H71.1484V193.875H97.5391V197.578ZM110.102 228.469C106.664 228.469 103.867 227.344 101.711 225.094C99.5547 222.828 98.4766 219.805 98.4766 216.023V215.227C98.4766 212.711 98.9531 210.469 99.9062 208.5C100.875 206.516 102.219 204.969 103.938 203.859C105.672 202.734 107.547 202.172 109.562 202.172C112.859 202.172 115.422 203.258 117.25 205.43C119.078 207.602 119.992 210.711 119.992 214.758V216.562H102.812C102.875 219.062 103.602 221.086 104.992 222.633C106.398 224.164 108.18 224.93 110.336 224.93C111.867 224.93 113.164 224.617 114.227 223.992C115.289 223.367 116.219 222.539 117.016 221.508L119.664 223.57C117.539 226.836 114.352 228.469 110.102 228.469ZM109.562 205.734C107.812 205.734 106.344 206.375 105.156 207.656C103.969 208.922 103.234 210.703 102.953 213H115.656V212.672C115.531 210.469 114.938 208.766 113.875 207.562C112.812 206.344 111.375 205.734 109.562 205.734ZM133.539 211.898L139.164 202.641H144.227L135.93 215.18L144.484 228H139.469L133.609 218.508L127.75 228H122.711L131.266 215.18L122.969 202.641H127.984L133.539 211.898ZM154.727 196.5V202.641H159.461V205.992H154.727V221.719C154.727 222.734 154.938 223.5 155.359 224.016C155.781 224.516 156.5 224.766 157.516 224.766C158.016 224.766 158.703 224.672 159.578 224.484V228C158.438 228.312 157.328 228.469 156.25 228.469C154.312 228.469 152.852 227.883 151.867 226.711C150.883 225.539 150.391 223.875 150.391 221.719V205.992H145.773V202.641H150.391V196.5H154.727ZM190.258 228H185.898V199.102L177.156 202.312V198.375L189.578 193.711H190.258V228Z" fill="black"/>
<line x1="50" y1="159.5" x2="525" y2="159.5" stroke="black"/>
<line x1="525" y1="159.5" x2="550" y2="159.5" stroke="black"/>
<line x1="50" y1="679.5" x2="550" y2="679.5" stroke="black"/>
<line x1="50.5" y1="160" x2="50.5" y2="680" stroke="#C8C8C8"/>
<line x1="550.5" y1="160" x2="550.5" y2="680" stroke="#C8C8C8"/>
<line x1="525.5" y1="160" x2="525.5" y2="680" stroke="#C8C8C8"/>
<rect x="525" y="160" width="25" height="162" fill="#C4C4C4"/>
<path d="M132.252 137H128.877V111.406H132.252V137ZM141.006 117.98L141.111 120.371C142.564 118.543 144.463 117.629 146.807 117.629C150.826 117.629 152.854 119.896 152.889 124.432V137H149.637V124.414C149.625 123.043 149.309 122.029 148.688 121.373C148.078 120.717 147.123 120.389 145.822 120.389C144.768 120.389 143.842 120.67 143.045 121.232C142.248 121.795 141.627 122.533 141.182 123.447V137H137.93V117.98H141.006ZM162.205 113.375V117.98H165.756V120.494H162.205V132.289C162.205 133.051 162.363 133.625 162.68 134.012C162.996 134.387 163.535 134.574 164.297 134.574C164.672 134.574 165.188 134.504 165.844 134.363V137C164.988 137.234 164.156 137.352 163.348 137.352C161.895 137.352 160.799 136.912 160.061 136.033C159.322 135.154 158.953 133.906 158.953 132.289V120.494H155.49V117.98H158.953V113.375H162.205ZM177.463 137.352C174.885 137.352 172.787 136.508 171.17 134.82C169.553 133.121 168.744 130.854 168.744 128.018V127.42C168.744 125.533 169.102 123.852 169.816 122.375C170.543 120.887 171.551 119.727 172.84 118.895C174.141 118.051 175.547 117.629 177.059 117.629C179.531 117.629 181.453 118.443 182.824 120.072C184.195 121.701 184.881 124.033 184.881 127.068V128.422H171.996C172.043 130.297 172.588 131.814 173.631 132.975C174.686 134.123 176.021 134.697 177.639 134.697C178.787 134.697 179.76 134.463 180.557 133.994C181.354 133.525 182.051 132.904 182.648 132.131L184.635 133.678C183.041 136.127 180.65 137.352 177.463 137.352ZM177.059 120.301C175.746 120.301 174.645 120.781 173.754 121.742C172.863 122.691 172.312 124.027 172.102 125.75H181.629V125.504C181.535 123.852 181.09 122.574 180.293 121.672C179.496 120.758 178.418 120.301 177.059 120.301ZM197.854 120.898C197.361 120.816 196.828 120.775 196.254 120.775C194.121 120.775 192.674 121.684 191.912 123.5V137H188.66V117.98H191.824L191.877 120.178C192.943 118.479 194.455 117.629 196.412 117.629C197.045 117.629 197.525 117.711 197.854 117.875V120.898ZM208.4 137.352C205.822 137.352 203.725 136.508 202.107 134.82C200.49 133.121 199.682 130.854 199.682 128.018V127.42C199.682 125.533 200.039 123.852 200.754 122.375C201.48 120.887 202.488 119.727 203.777 118.895C205.078 118.051 206.484 117.629 207.996 117.629C210.469 117.629 212.391 118.443 213.762 120.072C215.133 121.701 215.818 124.033 215.818 127.068V128.422H202.934C202.98 130.297 203.525 131.814 204.568 132.975C205.623 134.123 206.959 134.697 208.576 134.697C209.725 134.697 210.697 134.463 211.494 133.994C212.291 133.525 212.988 132.904 213.586 132.131L215.572 133.678C213.979 136.127 211.588 137.352 208.4 137.352ZM207.996 120.301C206.684 120.301 205.582 120.781 204.691 121.742C203.801 122.691 203.25 124.027 203.039 125.75H212.566V125.504C212.473 123.852 212.027 122.574 211.23 121.672C210.434 120.758 209.355 120.301 207.996 120.301ZM230.672 131.955C230.672 131.076 230.338 130.396 229.67 129.916C229.014 129.424 227.859 129.002 226.207 128.65C224.566 128.299 223.26 127.877 222.287 127.385C221.326 126.893 220.611 126.307 220.143 125.627C219.686 124.947 219.457 124.139 219.457 123.201C219.457 121.643 220.113 120.324 221.426 119.246C222.75 118.168 224.438 117.629 226.488 117.629C228.645 117.629 230.391 118.186 231.727 119.299C233.074 120.412 233.748 121.836 233.748 123.57H230.479C230.479 122.68 230.098 121.912 229.336 121.268C228.586 120.623 227.637 120.301 226.488 120.301C225.305 120.301 224.379 120.559 223.711 121.074C223.043 121.59 222.709 122.264 222.709 123.096C222.709 123.881 223.02 124.473 223.641 124.871C224.262 125.27 225.381 125.65 226.998 126.014C228.627 126.377 229.945 126.811 230.953 127.314C231.961 127.818 232.705 128.428 233.186 129.143C233.678 129.846 233.924 130.707 233.924 131.727C233.924 133.426 233.244 134.791 231.885 135.822C230.525 136.842 228.762 137.352 226.594 137.352C225.07 137.352 223.723 137.082 222.551 136.543C221.379 136.004 220.459 135.254 219.791 134.293C219.135 133.32 218.807 132.271 218.807 131.146H222.059C222.117 132.236 222.551 133.104 223.359 133.748C224.18 134.381 225.258 134.697 226.594 134.697C227.824 134.697 228.809 134.451 229.547 133.959C230.297 133.455 230.672 132.787 230.672 131.955ZM249.234 131.955C249.234 131.076 248.9 130.396 248.232 129.916C247.576 129.424 246.422 129.002 244.77 128.65C243.129 128.299 241.822 127.877 240.85 127.385C239.889 126.893 239.174 126.307 238.705 125.627C238.248 124.947 238.02 124.139 238.02 123.201C238.02 121.643 238.676 120.324 239.988 119.246C241.312 118.168 243 117.629 245.051 117.629C247.207 117.629 248.953 118.186 250.289 119.299C251.637 120.412 252.311 121.836 252.311 123.57H249.041C249.041 122.68 248.66 121.912 247.898 121.268C247.148 120.623 246.199 120.301 245.051 120.301C243.867 120.301 242.941 120.559 242.273 121.074C241.605 121.59 241.271 122.264 241.271 123.096C241.271 123.881 241.582 124.473 242.203 124.871C242.824 125.27 243.943 125.65 245.561 126.014C247.189 126.377 248.508 126.811 249.516 127.314C250.523 127.818 251.268 128.428 251.748 129.143C252.24 129.846 252.486 130.707 252.486 131.727C252.486 133.426 251.807 134.791 250.447 135.822C249.088 136.842 247.324 137.352 245.156 137.352C243.633 137.352 242.285 137.082 241.113 136.543C239.941 136.004 239.021 135.254 238.354 134.293C237.697 133.32 237.369 132.271 237.369 131.146H240.621C240.68 132.236 241.113 133.104 241.922 133.748C242.742 134.381 243.82 134.697 245.156 134.697C246.387 134.697 247.371 134.451 248.109 133.959C248.859 133.455 249.234 132.787 249.234 131.955ZM264.615 137.352C262.037 137.352 259.939 136.508 258.322 134.82C256.705 133.121 255.896 130.854 255.896 128.018V127.42C255.896 125.533 256.254 123.852 256.969 122.375C257.695 120.887 258.703 119.727 259.992 118.895C261.293 118.051 262.699 117.629 264.211 117.629C266.684 117.629 268.605 118.443 269.977 120.072C271.348 121.701 272.033 124.033 272.033 127.068V128.422H259.148C259.195 130.297 259.74 131.814 260.783 132.975C261.838 134.123 263.174 134.697 264.791 134.697C265.939 134.697 266.912 134.463 267.709 133.994C268.506 133.525 269.203 132.904 269.801 132.131L271.787 133.678C270.193 136.127 267.803 137.352 264.615 137.352ZM264.211 120.301C262.898 120.301 261.797 120.781 260.906 121.742C260.016 122.691 259.465 124.027 259.254 125.75H268.781V125.504C268.688 123.852 268.242 122.574 267.445 121.672C266.648 120.758 265.57 120.301 264.211 120.301ZM278.889 117.98L278.994 120.371C280.447 118.543 282.346 117.629 284.689 117.629C288.709 117.629 290.736 119.896 290.771 124.432V137H287.52V124.414C287.508 123.043 287.191 122.029 286.57 121.373C285.961 120.717 285.006 120.389 283.705 120.389C282.65 120.389 281.725 120.67 280.928 121.232C280.131 121.795 279.51 122.533 279.064 123.447V137H275.812V117.98H278.889ZM316.348 137C316.16 136.625 316.008 135.957 315.891 134.996C314.379 136.566 312.574 137.352 310.477 137.352C308.602 137.352 307.061 136.824 305.854 135.77C304.658 134.703 304.061 133.355 304.061 131.727C304.061 129.746 304.811 128.211 306.311 127.121C307.822 126.02 309.943 125.469 312.674 125.469H315.838V123.975C315.838 122.838 315.498 121.936 314.818 121.268C314.139 120.588 313.137 120.248 311.812 120.248C310.652 120.248 309.68 120.541 308.895 121.127C308.109 121.713 307.717 122.422 307.717 123.254H304.447C304.447 122.305 304.781 121.391 305.449 120.512C306.129 119.621 307.043 118.918 308.191 118.402C309.352 117.887 310.623 117.629 312.006 117.629C314.197 117.629 315.914 118.18 317.156 119.281C318.398 120.371 319.043 121.877 319.09 123.799V132.553C319.09 134.299 319.312 135.688 319.758 136.719V137H316.348ZM310.951 134.521C311.971 134.521 312.938 134.258 313.852 133.73C314.766 133.203 315.428 132.518 315.838 131.674V127.771H313.289C309.305 127.771 307.312 128.938 307.312 131.27C307.312 132.289 307.652 133.086 308.332 133.66C309.012 134.234 309.885 134.521 310.951 134.521ZM335.93 135.119C334.664 136.607 332.807 137.352 330.357 137.352C328.33 137.352 326.783 136.766 325.717 135.594C324.662 134.41 324.129 132.664 324.117 130.355V117.98H327.369V130.268C327.369 133.15 328.541 134.592 330.885 134.592C333.369 134.592 335.021 133.666 335.842 131.814V117.98H339.094V137H336L335.93 135.119ZM355.125 131.955C355.125 131.076 354.791 130.396 354.123 129.916C353.467 129.424 352.312 129.002 350.66 128.65C349.02 128.299 347.713 127.877 346.74 127.385C345.779 126.893 345.064 126.307 344.596 125.627C344.139 124.947 343.91 124.139 343.91 123.201C343.91 121.643 344.566 120.324 345.879 119.246C347.203 118.168 348.891 117.629 350.941 117.629C353.098 117.629 354.844 118.186 356.18 119.299C357.527 120.412 358.201 121.836 358.201 123.57H354.932C354.932 122.68 354.551 121.912 353.789 121.268C353.039 120.623 352.09 120.301 350.941 120.301C349.758 120.301 348.832 120.559 348.164 121.074C347.496 121.59 347.162 122.264 347.162 123.096C347.162 123.881 347.473 124.473 348.094 124.871C348.715 125.27 349.834 125.65 351.451 126.014C353.08 126.377 354.398 126.811 355.406 127.314C356.414 127.818 357.158 128.428 357.639 129.143C358.131 129.846 358.377 130.707 358.377 131.727C358.377 133.426 357.697 134.791 356.338 135.822C354.979 136.842 353.215 137.352 351.047 137.352C349.523 137.352 348.176 137.082 347.004 136.543C345.832 136.004 344.912 135.254 344.244 134.293C343.588 133.32 343.26 132.271 343.26 131.146H346.512C346.57 132.236 347.004 133.104 347.812 133.748C348.633 134.381 349.711 134.697 351.047 134.697C352.277 134.697 353.262 134.451 354 133.959C354.75 133.455 355.125 132.787 355.125 131.955ZM379.453 132.518L383.109 117.98H386.361L380.824 137H378.188L373.564 122.586L369.064 137H366.428L360.908 117.98H364.143L367.887 132.219L372.316 117.98H374.936L379.453 132.518ZM401.426 137C401.238 136.625 401.086 135.957 400.969 134.996C399.457 136.566 397.652 137.352 395.555 137.352C393.68 137.352 392.139 136.824 390.932 135.77C389.736 134.703 389.139 133.355 389.139 131.727C389.139 129.746 389.889 128.211 391.389 127.121C392.9 126.02 395.021 125.469 397.752 125.469H400.916V123.975C400.916 122.838 400.576 121.936 399.896 121.268C399.217 120.588 398.215 120.248 396.891 120.248C395.73 120.248 394.758 120.541 393.973 121.127C393.188 121.713 392.795 122.422 392.795 123.254H389.525C389.525 122.305 389.859 121.391 390.527 120.512C391.207 119.621 392.121 118.918 393.27 118.402C394.43 117.887 395.701 117.629 397.084 117.629C399.275 117.629 400.992 118.18 402.234 119.281C403.477 120.371 404.121 121.877 404.168 123.799V132.553C404.168 134.299 404.391 135.688 404.836 136.719V137H401.426ZM396.029 134.521C397.049 134.521 398.016 134.258 398.93 133.73C399.844 133.203 400.506 132.518 400.916 131.674V127.771H398.367C394.383 127.771 392.391 128.938 392.391 131.27C392.391 132.289 392.73 133.086 393.41 133.66C394.09 134.234 394.963 134.521 396.029 134.521ZM391.775 112.9C391.775 112.373 391.934 111.934 392.25 111.582C392.578 111.219 393.059 111.037 393.691 111.037C394.324 111.037 394.805 111.219 395.133 111.582C395.461 111.934 395.625 112.373 395.625 112.9C395.625 113.428 395.461 113.867 395.133 114.219C394.805 114.57 394.324 114.746 393.691 114.746C393.059 114.746 392.578 114.57 392.25 114.219C391.934 113.867 391.775 113.428 391.775 112.9ZM399.334 112.936C399.334 112.408 399.492 111.963 399.809 111.6C400.137 111.236 400.617 111.055 401.25 111.055C401.883 111.055 402.363 111.236 402.691 111.6C403.02 111.963 403.184 112.408 403.184 112.936C403.184 113.463 403.02 113.902 402.691 114.254C402.363 114.605 401.883 114.781 401.25 114.781C400.617 114.781 400.137 114.605 399.809 114.254C399.492 113.902 399.334 113.463 399.334 112.936ZM412.518 120.283C413.959 118.514 415.834 117.629 418.143 117.629C422.162 117.629 424.189 119.896 424.225 124.432V137H420.973V124.414C420.961 123.043 420.645 122.029 420.023 121.373C419.414 120.717 418.459 120.389 417.158 120.389C416.104 120.389 415.178 120.67 414.381 121.232C413.584 121.795 412.963 122.533 412.518 123.447V137H409.266V110H412.518V120.283ZM432.627 137H429.375V110H432.627V137ZM445.74 137.352C443.162 137.352 441.064 136.508 439.447 134.82C437.83 133.121 437.021 130.854 437.021 128.018V127.42C437.021 125.533 437.379 123.852 438.094 122.375C438.82 120.887 439.828 119.727 441.117 118.895C442.418 118.051 443.824 117.629 445.336 117.629C447.809 117.629 449.73 118.443 451.102 120.072C452.473 121.701 453.158 124.033 453.158 127.068V128.422H440.273C440.32 130.297 440.865 131.814 441.908 132.975C442.963 134.123 444.299 134.697 445.916 134.697C447.064 134.697 448.037 134.463 448.834 133.994C449.631 133.525 450.328 132.904 450.926 132.131L452.912 133.678C451.318 136.127 448.928 137.352 445.74 137.352ZM445.336 120.301C444.023 120.301 442.922 120.781 442.031 121.742C441.141 122.691 440.59 124.027 440.379 125.75H449.906V125.504C449.812 123.852 449.367 122.574 448.57 121.672C447.773 120.758 446.695 120.301 445.336 120.301ZM460.014 117.98L460.119 120.371C461.572 118.543 463.471 117.629 465.814 117.629C469.834 117.629 471.861 119.896 471.896 124.432V137H468.645V124.414C468.633 123.043 468.316 122.029 467.695 121.373C467.086 120.717 466.131 120.389 464.83 120.389C463.775 120.389 462.85 120.67 462.053 121.232C461.256 121.795 460.635 122.533 460.189 123.447V137H456.938V117.98H460.014Z" fill="black"/>
<path d="M145.906 60.6562L146.781 66.6562L148.062 61.25L157.062 29.5H162.125L170.906 61.25L172.156 66.75L173.125 60.625L180.188 29.5H186.219L175.188 75H169.719L160.344 41.8438L159.625 38.375L158.906 41.8438L149.188 75H143.719L132.719 29.5H138.719L145.906 60.6562ZM198.281 75H192.5V41.1875H198.281V75ZM192.031 32.2188C192.031 31.2812 192.312 30.4896 192.875 29.8438C193.458 29.1979 194.312 28.875 195.438 28.875C196.562 28.875 197.417 29.1979 198 29.8438C198.583 30.4896 198.875 31.2812 198.875 32.2188C198.875 33.1562 198.583 33.9375 198 34.5625C197.417 35.1875 196.562 35.5 195.438 35.5C194.312 35.5 193.458 35.1875 192.875 34.5625C192.312 33.9375 192.031 33.1562 192.031 32.2188ZM213.844 75H208.062V27H213.844V75ZM232.562 59.3438L228.938 63.125V75H223.156V27H228.938V56.0312L232.031 52.3125L242.562 41.1875H249.594L236.438 55.3125L251.125 75H244.344L232.562 59.3438ZM254.031 57.7812C254.031 54.4688 254.677 51.4896 255.969 48.8438C257.281 46.1979 259.094 44.1562 261.406 42.7188C263.74 41.2812 266.396 40.5625 269.375 40.5625C273.979 40.5625 277.698 42.1562 280.531 45.3438C283.385 48.5312 284.812 52.7708 284.812 58.0625V58.4688C284.812 61.7604 284.177 64.7188 282.906 67.3438C281.656 69.9479 279.854 71.9792 277.5 73.4375C275.167 74.8958 272.479 75.625 269.438 75.625C264.854 75.625 261.135 74.0312 258.281 70.8438C255.448 67.6562 254.031 63.4375 254.031 58.1875V57.7812ZM259.844 58.4688C259.844 62.2188 260.708 65.2292 262.438 67.5C264.188 69.7708 266.521 70.9062 269.438 70.9062C272.375 70.9062 274.708 69.7604 276.438 67.4688C278.167 65.1562 279.031 61.9271 279.031 57.7812C279.031 54.0729 278.146 51.0729 276.375 48.7812C274.625 46.4688 272.292 45.3125 269.375 45.3125C266.521 45.3125 264.219 46.4479 262.469 48.7188C260.719 50.9896 259.844 54.2396 259.844 58.4688ZM297.5 41.1875L297.656 44.9375C300.135 42.0208 303.479 40.5625 307.688 40.5625C312.417 40.5625 315.635 42.375 317.344 46C318.469 44.375 319.927 43.0625 321.719 42.0625C323.531 41.0625 325.667 40.5625 328.125 40.5625C335.542 40.5625 339.312 44.4896 339.438 52.3438V75H333.656V52.6875C333.656 50.2708 333.104 48.4688 332 47.2812C330.896 46.0729 329.042 45.4688 326.438 45.4688C324.292 45.4688 322.51 46.1146 321.094 47.4062C319.677 48.6771 318.854 50.3958 318.625 52.5625V75H312.812V52.8438C312.812 47.9271 310.406 45.4688 305.594 45.4688C301.802 45.4688 299.208 47.0833 297.812 50.3125V75H292.031V41.1875H297.5ZM353.625 41.1875L353.781 44.9375C356.26 42.0208 359.604 40.5625 363.812 40.5625C368.542 40.5625 371.76 42.375 373.469 46C374.594 44.375 376.052 43.0625 377.844 42.0625C379.656 41.0625 381.792 40.5625 384.25 40.5625C391.667 40.5625 395.438 44.4896 395.562 52.3438V75H389.781V52.6875C389.781 50.2708 389.229 48.4688 388.125 47.2812C387.021 46.0729 385.167 45.4688 382.562 45.4688C380.417 45.4688 378.635 46.1146 377.219 47.4062C375.802 48.6771 374.979 50.3958 374.75 52.5625V75H368.938V52.8438C368.938 47.9271 366.531 45.4688 361.719 45.4688C357.927 45.4688 355.333 47.0833 353.938 50.3125V75H348.156V41.1875H353.625ZM418.344 75.625C413.76 75.625 410.031 74.125 407.156 71.125C404.281 68.1042 402.844 64.0729 402.844 59.0312V57.9688C402.844 54.6146 403.479 51.625 404.75 49C406.042 46.3542 407.833 44.2917 410.125 42.8125C412.438 41.3125 414.938 40.5625 417.625 40.5625C422.021 40.5625 425.438 42.0104 427.875 44.9062C430.312 47.8021 431.531 51.9479 431.531 57.3438V59.75H408.625C408.708 63.0833 409.677 65.7812 411.531 67.8438C413.406 69.8854 415.781 70.9062 418.656 70.9062C420.698 70.9062 422.427 70.4896 423.844 69.6562C425.26 68.8229 426.5 67.7188 427.562 66.3438L431.094 69.0938C428.26 73.4479 424.01 75.625 418.344 75.625ZM417.625 45.3125C415.292 45.3125 413.333 46.1667 411.75 47.875C410.167 49.5625 409.188 51.9375 408.812 55H425.75V54.5625C425.583 51.625 424.792 49.3542 423.375 47.75C421.958 46.125 420.042 45.3125 417.625 45.3125ZM443.719 41.1875L443.906 45.4375C446.49 42.1875 449.865 40.5625 454.031 40.5625C461.177 40.5625 464.781 44.5938 464.844 52.6562V75H459.062V52.625C459.042 50.1875 458.479 48.3854 457.375 47.2188C456.292 46.0521 454.594 45.4688 452.281 45.4688C450.406 45.4688 448.76 45.9688 447.344 46.9688C445.927 47.9688 444.823 49.2812 444.031 50.9062V75H438.25V41.1875H443.719Z" fill="black"/>
</svg>
